<?xml version="1.0" encoding="UTF-8"?> <svg xmlns="http://www.w3.org/2000/svg" xmlns:xlink="http://www.w3.org/1999/xlink" version="1.1" id="Layer_1" x="0px" y="0px" viewBox="0 0 3600 3600" style="enable-background:new 0 0 3600 3600;" xml:space="preserve"> <g> <path d="M1521.4,671.5c9.5,19.5,18.3,39.3,28.7,58.3c55.3,101.3,126.1,188.9,225.6,250.3c23.4,14.5,47.8,27.5,72.2,40.4 c14.6,7.7,25.2,17.1,28.1,34.6c6.5,39.3,16.5,78.2,20.9,117.7c5.7,50.8-20,92.6-42.9,135.8c-20,37.7-47.4,54.9-89.3,62.1 c-150.7,25.9-269.7,107.9-370.6,219.2c-2.6,2.9-5.2,5.9-7.4,9.1c-0.9,1.3-1,3.1-2.7,8.6c16.9-12.6,31.4-22.9,45.4-33.7 c74.5-58,153.1-109.4,240.3-146.3c36.2-15.4,74.3-26.3,111-40.7c27-10.7,52.7-24.8,79.7-35.5c16-6.3,33.3-11.3,50.3-12.4 c27.9-1.8,44.9,15.9,45.9,44.6c1.5,39.6-15.9,73.6-34.9,106.1c-41.5,70.8-99.1,127.6-162.4,178.8c-61,49.5-128.9,88.2-196.2,128.3 c-76.5,45.7-140.4,105.7-171.7,192.9c-16,44.7-19.5,90.2,0.6,134.9c15.6,34.8-11.7,63.3-45.7,58.1c-22.2-3.4-32.9-18.2-26-39.5 c2.9-8.9,6.3-19.8,13.1-24.9c24.7-18.5,19.9-43.6,16.8-67.6c-5.1-38.7-28.9-66.4-58.2-89.7c-3-2.4-11.1-2.3-14.4,0 c-37.4,26-74.3,52.9-111.6,79c-18.4,12.9-37.8,24.4-56,37.6c-6.4,4.6-11.1,12-15.7,18.7c-4.7,6.9-7.8,14.9-12.5,21.8 c-8.8,13-20.9,21.3-37.1,18.1c-17.1-3.4-26.9-15.6-31.2-32.1c-4.3-16.5,0-31.3,15-39.3c12.1-6.5,26.1-9.1,39.3-13.5 c10.4-3.4,22.2-4.7,31.2-10.5c67.8-43.1,121.1-99.9,157.3-172.1c1.2-2.4,2.1-4.8,4.2-9.6c-33.3-1.1-64.7-1.9-96-3.2 c-19.6-0.8-38.1-1.7-55.4,12.2c-13.6,10.9-29.9,8.2-43.4-3.5c-12.4-10.8-16.9-34.3-10.1-50.1c6.2-14.6,20.3-23.2,38.6-21.1 c11.6,1.3,23.2,4.8,34.1,8.9c33,12.4,94.7,13.6,129.8,1.4c-6.2-13.7-13.3-26.9-18.3-41c-16.2-45.7-8.8-88.7,22.7-124.8 c27.6-31.6,58-61,88.7-89.8c44.1-41.3,80.1-88.2,104.7-143.4c6.2-13.9,14.8-24,29.2-28c45.4-12.6,90.9-24.9,136.5-37 c6.5-1.7,13.2-2.4,19.9-6.2c-3.8-0.4-7.6-1.4-11.4-1.2c-48.5,2.3-96.4,7.9-142,26.1c-8.4,3.3-18.7,4.4-27.7,3.2 c-32.4-4.2-62.7-1.9-93.8,10.9c-120.8,49.7-246.3,59.2-374.6,38.2c-30.3-5-60.6-10.4-92.9-16c4.7,35.1,9,69,13.8,102.8 c8.3,58.6-24,93-83,85.3c-37.2-4.9-74-13.7-110.9-21c-58.4-11.6-116.4-14.2-172,12c-43.8,20.7-73.6,55.9-99.8,95.6 c-11.5,17.4-13.8,33.2-9.5,53.4c3,13.9,0.5,30.3-3.9,44.1c-6.3,19.4-26.5,25.4-46.1,16.9c-19.7-8.5-30.6-29.4-21.3-46.4 c6.4-11.7,17.7-20.8,27.3-30.6c4.6-4.7,12.4-7.3,15.1-12.7c22.6-45.2,44.4-90.9,68.5-140.7c-32.9-2.4-63.5-7.8-93.7-6 c-36.3,2.1-72.2,10-108.1,16.3c-5.9,1-11.2,6.4-16.3,10.4c-7.1,5.5-13.1,12.4-20.7,17.1c-14.3,8.8-29.3,4.7-37.4-10 c-9.4-17.1-11.1-35.5-5.1-53.9c6.9-21,27.9-26.2,48.6-14.9c9.1,5,20.8,8.6,30.9,7.8c59.7-4.6,118.9-12.4,173.1-40.4 c21.8-11.3,43.9-24.6,44.8-52.4c1-29.1-21.4-44.5-42.8-58.3c-21.2-13.7-43-24.9-70.5-23.4c-24.7,1.3-38.9-11.8-38.9-28.6 c0.1-20.3,19.4-42.1,39.6-44.4c14.9-1.7,26.7,5.5,30.9,18.5c9.5,29.8,34.8,43,57.6,58.7c22.8,15.7,47.3,28.4,76,30.1 c28.8,1.7,50.1-12.8,51-41.1c0.7-23.6-5.5-47.4-9.6-70.9c-0.7-3.8-6.1-7.9-10.3-9.9c-29.8-14.8-59.9-28.8-89.6-43.9 c-9-4.6-14.7-3.2-22.3,2.9c-36.9,29.6-73,29.4-107-0.2c-4.9-4.2-9.1-10.1-11.5-16.1c-22.1-55-52.8-104.8-94.5-146.7 c-19-19.1-25.6-40.5-24.1-65.4c1.1-19,3.5-38.1,7.3-56.7c6.2-30.4,21-53.2,50.5-69.1c46.7-25.1,86.7-60,120.7-101.3 c32-38.9,85.3-40.1,115.6,0.5c14.5,19.5,27.9,22.1,48.9,17.3c25.2-5.8,51.1-8.2,76.5-13.3c6.9-1.4,15.6-5.8,18.8-11.5 c10.1-17.9,20.9-36.3,26.1-55.9c8.5-32.2-8.6-55.8-41.9-60.1c-46.5-6-88.8,10.4-130.3,28.4c-4.6,2-7.3,8.3-10.7,12.7 c-13.3,16.7-30.9,21.8-45.8,13c-17-10-28-38.6-20.3-54.6c7.7-16,22.8-19.5,37.4-14.8c27.4,8.9,54,7.9,80.9-0.3 c10.7-3.2,21.5-7,31.3-12.4c31.8-17.8,38.8-46,16.2-74.6c-14.1-17.8-30.6-35.7-50-46.9c-41.2-23.9-84.8-43.9-127.9-64.4 c-6.2-2.9-15.3-1.4-22.6,0.1c-31.7,6.4-47.6-7-42.3-38.9c2-12.1,8.1-24.8,15.8-34.4c14.7-18.4,34.6-18.3,45.6,2.2 c24.8,46.5,70.6,60.6,114.2,76.6c31.2,11.5,64.9,16.2,100.3,24.6c-7.3-44.7-14.4-84.6-20.2-124.6c-3.2-22-9.3-41.4-23.9-59.5 c-17.6-22-13.2-45.6,6.6-57.1c14.1-8.2,29.4-10.2,43.3-1.3c13.7,8.8,17.8,23.4,14.1,38.7c-3.2,13.5-7.7,27.2-14.1,39.5 c-6.2,11.8-7,22.2-3.6,35.1c11.2,41.8,26.1,81.7,55.3,114.5c45.2,50.7,105.4,68.3,170,76c44,5.3,88.4,8.9,131.9,17 c49.6,9.3,60.1,57.7,43.5,94.9c-14.8,33.3-28.9,66.9-43.6,101.1c34.9,4.4,69.5,7.9,103.7,13.2c126.5,19.8,241.8,65.8,340.5,148.9 c24.1,20.3,52.3,27.1,81.6,33.3c8.4,1.8,17.3,5.1,23.9,10.3c43.2,33.6,91.7,55.9,144,70.6c-37-21.7-73.8-43.2-110.6-64.8 c-2.9-1.7-5.5-3.9-8.4-5.6c-27.2-17.1-40.4-40.2-45.1-73.5c-9-63.8-37.5-120.9-71.6-175.5c-15.7-25.2-29.4-52-40.7-79.4 c-23.2-56-13.7-106.8,30-150.2c4.3-4.3,8.4-8.8,13.9-14.5c-40.3-23.7-81.9-36.7-127.6-35.7c-8.4,0.2-16.8,0.4-25.2-0.2 c-17.7-1.2-31.9-8.7-37.4-26.4c-5.6-18,1.7-33.5,14.4-45.9c16.2-15.8,39.2-13.6,54.1,6.8c9.2,12.6,20.6,17.8,34.6,21.4 c34.3,8.9,68.3,18.4,106.9,28.9c-6.7-25.5-11.5-48.3-18.6-70.4c-18.4-56.9-47.1-108.4-87.1-153c-6.1-6.8-14.9-11.1-22.8-16.2 c-10.3-6.6-22.3-11.3-31.2-19.5c-23-21.5-16-54.9,13-67.2c17.8-7.5,34.8-1.6,44.3,16.2c3.4,6.4,7.3,13.7,7.2,20.5 c-0.4,21,11.1,35.5,23.2,50.6c40.5,50.5,80.3,101.4,120.8,152.9c54.5-18.5,92.6-52,101.8-111.6c1-6.6-1.2-13.9-3.1-20.6 c-2.2-7.5-6.2-14.5-8.5-22c-4.7-14.9-4.6-29.4,8.8-40c11.8-9.3,34.4-6.8,49,4.5c13.3,10.4,18.6,23.8,13.3,40.3 c-1.9,5.8-4.5,11.8-8.3,16.5c-47.7,59.8-51.3,127.1-30.3,196.6c21.8,72.3,61.6,134.1,114.7,188.4 c96.4,98.6,179.5,206.8,224.2,339.4c11.7,34.7,15.3,72.3,20.9,108.8c1.7,11.2-1.1,23.6-3.8,35c-9.2,38.7-41.2,52.4-74.9,30.9 c-17.9-11.4-33.6-26.1-50-39.7c-15-12.4-28.5-27-44.7-37.7c-123.1-81.4-219.8-188.4-302.1-309.4c-3.6-5.3-8-10.2-12-15.2 C1523.9,669.9,1522.7,670.7,1521.4,671.5z M1307,1116.7c-243.7-53.2-489.7-90.8-738.3-111C812.5,1058.2,1058.4,1096.5,1307,1116.7z M1728.3,1609.5c-0.8-1-1.6-2-2.4-3c-7.1,4.5-14.2,9-21.2,13.5c-52.2,33.2-103.9,67.3-156.8,99.2c-58.3,35.2-116.7,70.8-183.9,86.9 c-22.1,5.3-45.4,5.6-68.1,8.2c8.6,8.1,19,14.8,30.3,17c35.8,6.9,69.2-4.4,101.6-17.8c81.4-33.4,153.4-82.5,221.8-137 C1676.5,1655.1,1702.1,1631.9,1728.3,1609.5z M1496.4,445.5c58.3,13,93.1,36.8,132.5,77.1c61.6,63.1,119.7,129.6,179.1,194.8 c13.5,14.8,26.2,30.5,39.2,45.7c1.5-3.4,1.2-5.1,0.3-6.5c-57-97.1-123.5-186.7-207.6-262.2c-27.2-24.5-56.7-46.3-93-56.4 C1529.7,433.1,1513.2,433.5,1496.4,445.5z M668.1,1300.3c-2.1,0.6-4.1,1.2-6.2,1.7c2.6,24.3,3.3,49,8.2,72.8 c5.9,28.2,24.5,47.4,53.8,50.8c14.9,1.8,22,9,27.2,20.8c11.7,26.6,23.3,53.3,34.9,79.9c1.9-7,1.6-14.1,1.6-21.1 c-0.2-36-18.5-65-35.2-95C729.6,1369.3,700.3,1333.8,668.1,1300.3z M927.8,569.8c-2.7,3.2-5.4,6.3-8.1,9.5 c-17,20.1-34,40.2-51,60.4c-7.5,8.9-15.9,12.2-28.1,9.5c-24.2-5.3-43.9,3.5-59.8,22.2c-19.4,23-28,50.3-34.1,84.4 C823.3,705.4,900.2,662.3,927.8,569.8z M369.4,1201.2c-0.3,2.1-0.7,4.2-1,6.2c19.6,19.4,51.6,21.6,73,0.1 C417.3,1205.5,393.4,1203.3,369.4,1201.2z M434.1,757c24.4,11.7,48.3,16.2,75.5,14.6C488.6,746.9,455.8,740.3,434.1,757z"></path> </g> <g> <path d="M3314.4,3155.6c40.5-45.3,82.7-86.8,133.4-118.9c20.8-13.2,38.6-31.1,57.1-47.6c15.9-14.2,30.6-28.9,51.7-36.9 c28.6-10.8,33.2-33.4,15.1-58.3c-23.9-32.9-52-31.5-70,5.2c-12,24.5-29.1,42.7-51.2,58.3c-27.1,19.1-51,42.9-78.6,61 c-30.5,20-63.7,35.9-95.7,53.4c-1.6,0.9-4,0.5-9.3,1.1c0.7-8.6,0.4-16.6,2.1-24.1c12.2-55.4,24.5-110.9,37.5-166.1 c2-8.4,7.5-16.1,11.6-23.9c4.1-8,9.7-15.4,12.4-23.7c4.5-13.9-1.4-25.9-15.5-29.1c-14-3.2-28.8-4.4-43.1-3.8 c-16.3,0.6-26.5,12.6-27,28.6c-0.2,6.9,0.5,13.9,2.1,20.6c4.1,16.9,1,32.6-4.2,48.8c-14.1,44.3-28.3,88.4-49.5,129.9 c-3.7,7.2-8.1,14-11.5,19.8c-16.9,2.3-21.6-7.4-25.3-18.5c-11.2-33.8-16.2-68.8-16.5-104.2c-0.3-28.9,2.3-57.9,3.1-86.8 c0.6-23.3-4.6-28.4-28.1-26.6c-10.9,0.8-21.9,3.1-32.4,6.3c-19.6,6-26.1,17.9-16.7,36.5c17.2,34.3,20.1,71.5,25.8,108.3 c5.3,34.2-2.5,67.6-4.7,101.3c-0.3,5.4-6.4,10.4-10.6,16.6c-6.2-4.8-10.9-7-13.5-10.6c-20.2-28-41-55.7-59.4-84.8 c-8.3-13.1-12.9-28.9-16.9-44.1c-7.1-26.5-24.7-33.3-45.7-16.4c-4.9,3.9-9.7,7.8-14.2,12.1c-14.9,14.2-15.4,33.7,1.5,44.4 c32.4,20.4,48.4,52.5,63.7,84.9c12.4,26.2,21.8,53.9,32.3,81c1.7,4.4,2.3,9.3,3.4,14.1c-12.1,19.1-31.8,26.8-50.2,35.8 c-54.6,26.8-109.5,53-164.4,79.4c-1.2,0.6-2.6,0.5-7,1.3c3.8-16,7.4-30.9,10.9-45.8c2.3-10.1,4.9-20.2,6.5-30.4 c10.1-66.4,20.4-132.7,29.8-199.2c4-28.1,4.3-56.4-0.5-84.8c-9.5-56.5-44.4-90.4-95.7-110.1c-35.8-13.8-73.5-13.1-110.8-11.2 c-67.7,3.5-135.3,8.2-202.9,13.4c-17.1,1.3-33.9,6.7-50.8,9.9c-8.5,1.6-17.1,2.6-25,3.9c-7.1-13.1-3.1-23,0.6-32.4 c11.7-29.6,25-58.6,35.4-88.7c6.7-19.4,11.6-40.1,13.4-60.6c4.6-52.7-5.2-104.1-25-152.4c-17.8-43.3-34-88.2-62.3-126.3 c-15.9-21.4-34.2-41.9-54.9-58.6c-20.8-16.7-29.6-37.7-34.9-61.6c-2.6-11.7,1.6-22.4,13.3-27.7c23.6-10.7,35.3-30.8,41.9-54 c14.6-51.3,28.3-102.8,42.3-154.2c2.5-9.4,4.6-18.8,6.9-28.2c4.8-19.5,14.5-35.7,30.9-47.8c17.5-13,25.4-29.7,22-52.2 c-10.8-70.3-13.1-141.9-33.5-210.9c-7.8-26.5-12.3-54-18.9-80.9c-2.8-11.6-0.5-21.5,5.2-31.7c25.1-45.6,47.2-92.5,60.2-143.2 c7.5-29.1,17.3-57.1,35.9-81.1c5.5-7,12-13.2,17.9-19.9c8.5-9.5,15.9-19.5,10.1-33.4c-5.8-13.9-22.5-26.3-36-23.1 c-7.6,1.8-15.9,8.6-20.2,15.5c-8.4,13.4-14.1,28.4-21.1,42.7c-10.4,21.1-20.8,42.2-32,62.8c-2.6,4.8-8.7,7.8-13.2,11.6 c-4-2.7-7.1-3.7-8.4-5.8c-32.3-51.8-53.3-107.9-59.9-168.5c-1.9-17.8,2.9-37,7.6-54.7c9.2-34.2-7-52.3-42.3-45.1 c-25.1,5.1-34.2,21.7-26.3,46c4,12.4,6.8,25.3,8.8,38.2c5.9,39.7,10.8,79.5,16.8,119.2c4.2,28.2-8,48.3-30.1,63.6 c-13.1,9.1-22.7,9.2-33.4-2.8c-29.5-32.9-58-66.8-86.4-100.7c-4.2-5-5.2-12.6-8.1-18.9c-3.9-8.6-8.2-17.1-11.8-24.5 c-26.7-2.7-50.2,17.8-51.2,41.6c-0.5,11.4,5.3,20.1,14.3,23.2c35.5,12.3,52.4,42,68.5,71.7c17.1,31.5,31.6,64.4,49.2,100.7 c-9.6-2.9-15.4-3.8-20.5-6.2c-35.6-16.6-73.6-28.3-106.5-50.9c-14.2-9.8-22.5-7.7-34.5,4.4c-2.9,2.9-5.5,6.2-7.8,9.7 c-15,22.7-7.9,41.1,18.9,45.5c23,3.7,44,11.7,64.6,22c4.3,2.2,8.8,4.5,13.4,5.5c32.7,7.3,56.3,28.7,79.5,50.8 c3.5,3.3,6.3,7.8,10.4,10.1c28.1,16.4,33.1,43.9,36.4,72.7c4.5,38.4,9.5,76.8,15,115.1c2.1,15,6.2,29.8,9.1,44.7 c8.5,43.7,3.3,86.2-6.9,129.3c-11.7,49.2-34.9,93.1-56.1,138.1c-7.9,16.7-12.1,35.1-18.4,52.6c-3.6,10.1-8.2,19.9-13.6,33 c-25.9-20.9-49.5-38.8-71.6-58.2c-8.6-7.5-16.8-17.8-20.3-28.4c-9-27.4-26-49.2-45.7-68.5c-17.3-17-20.9-38-26.1-59.4 c-4.1-16.7-7.8-33.7-14.2-49.6c-6.9-16.9-20.6-27.3-39.4-30.3c-55.4-8.7-107.3-27.8-153.6-59.1c-64.2-43.3-152.8-15.7-187.9,45.4 c-4.4,7.6-7.5,16.3-9.2,24.9c-5.9,30.6-12,61.2-16.1,92c-3.9,29.6-17.2,55.2-31,80.4c-16.1,29.3-15.8,47.8,5.3,74.2 c3.4,4.3,7.3,8.3,11,12.5c13.6,15.3,22.7,32,24.7,53.3c2,20.5,7.1,40.9,12.5,60.9c2.4,9.1,6.8,19.2,13.6,25.2 c18.3,16.3,20.8,38.1,24.8,59.7c2.6,14.3,5.5,28.6,6.9,43c0.7,7-0.4,15.1-3.3,21.4c-3.7,8-9.6,15.2-15.6,21.9 c-40,44.9-72.7,94-90.5,152.2c-5.1,16.7-13.6,31.5-25.5,44.7c-13.1,14.5-28.4,19.8-46.6,13.9c-15.1-4.8-29.8-11-44.5-17.1 c-40.2-16.7-80.4-33.6-120.5-50.8c-11.9-5.1-23.3-11.6-34.9-17.4c0.5-22,12.1-35.3,27.5-45.5c27.7-18.4,55.7-36.2,83.8-53.9 c5.7-3.6,12.7-5.1,18.9-7.8c22.2-9.4,26.3-28.3,10-46.3c-3.7-4.1-7.9-7.9-12.3-11.2c-15.1-11.4-28.6-11.2-39.9,3.9 c-27.9,37.5-67.5,58.9-107.5,79.3c-23.8,12.1-51.3,16.4-72.6-2.9c-37.9-34.3-85-54.5-124.8-85.7c-18.6-14.6-38-27.3-43.8-52.9 c-2.7-12.2-14.6-15.8-26.4-16.4c-13.2-0.7-35.1,13.3-40.4,25.4c-4.5,10.5-0.8,23.9,10.1,28.3c39.7,16.2,66.4,49.1,98.7,74.9 c9.7,7.8,19.3,15.7,28.7,23.9c3.4,3,6,7,10.2,12.2c-28.3,15-55.5,28.1-84.7,9c-39.4-25.7-77.8-53-116.3-80.1 c-6.6-4.7-11-12.5-17.1-17.9c-13.4-11.8-25.6-11.9-38.9,0.1c-5.6,5-10.4,11.2-14.1,17.8c-13,23.2-3.2,43.4,22.9,47.2 c37.8,5.4,69.4,22,95.8,49.5c10,10.5,20.4,20.9,31.6,30c20.8,16.9,34.3,39.7,50.1,60.5c1.5,1.9,1.7,4.9,3,8.8 c-4.3,0-7.1,0.7-9.4-0.1c-21.5-7.8-42.9-15.6-64.2-23.9c-15.4-6-30.4-13.1-45.8-19.2c-14.5-5.7-23.5-2.5-31.2,11.4 c-3,5.3-5.1,11.5-5.9,17.5c-3,20.5,6,33.1,26.9,33c39.7-0.3,74.4,13.9,107.4,33.5c47.8,28.5,100.8,33.6,154.4,33 c30.6-0.3,59.3,4.9,86.9,16.7c33.1,14.2,65.6,29.8,98.7,43.9c24.2,10.2,49.1,18.8,73.7,28.3c28.4,10.9,56.9,21.4,84.9,33.2 c29.7,12.6,49.8,8,68.9-18.2c5.3-7.2,10.2-15.1,13.3-23.4c9.2-24.4,23.5-45.4,39.6-65.5c19-23.8,37.5-48.1,56.3-72 c3.7-4.7,7.9-9,13.4-15.2c1.7,6.3,3.7,10.2,3.5,13.9c-1.9,47.1,15,89.4,33.8,131.1c14.5,32.1,28.7,64.4,44.7,95.7 c22.2,43.3,50.8,80.9,99.1,98.5c-67.2,12.2-133.7,24.4-203.8,37.1c-0.4-12.6-1.1-22.5-1-32.4c0-7.5,2-15.2,1.1-22.6 c-1.8-14.3-10.9-22.6-25.3-22.6c-12.4,0-25,1-37.2,3.3c-16.8,3.1-24.5,15.7-19.9,32.3c3.1,11.3,8.3,21.9,12.6,32.9 c3.7,9.5,7.4,19.1,11.6,29.9c-32.6,17.7-57.9,40.3-70.9,77.9c-13.5-14.1-23.8-28.2-33.8-42.5c-4.8-6.8-9-14.2-14.9-19.9 c-15.9-15.3-22.7-34.4-25.6-55.4c-4.1-29.7-21-41.4-49.4-32.3c-10.3,3.3-20.3,9-29,15.6c-12.3,9.4-13.4,20.1-4.8,32.6 c3.9,5.6,9.2,10.2,13.9,15.3c11.2,12.1,24.4,22.9,33.3,36.5c29,44.7,56.4,90.3,84.2,135.7c2.8,4.6,4.2,10,8,19.3 c-9.5-2-16.3-2.1-21.7-4.9c-52.1-27.3-104-54.9-155.9-82.6c-11.6-6.2-22.3-13.9-34-19.9c-16.4-8.5-29.1-20.6-39.5-35.7 c-6.2-9-13.8-17.4-22.1-24.6c-13.4-11.7-25.7-10.9-38.6,1.6c-4.9,4.8-9.3,10.4-12.9,16.2c-17,27-7.7,53.8,23.6,60.8 c22.9,5.1,39.5,18.8,57.7,31.2c16,10.9,31,24.1,48.5,31.7c51,22.3,93.4,56.6,135.5,91.6c8.7,7.2,20.8,11.9,22.9,25.9 c-7.8,13.3-21.7,14.8-34.3,14.8c-32.3,0-65,4.4-96.4-8.5c-11.2-4.6-24.6-6.8-34,6.1c-8.2,11.3-7.7,33.8,1.2,47.5 c7.4,11.3,17.8,16.2,32.4,12.1c39-10.7,78.3-7.1,117.6-4.1c39.3,3,78.7,6.5,118,9.4c9.6,0.7,19.5,0.8,29-0.4 c27.9-3.6,55.4-1.8,82.1,6.8c49.7,16,101,23.6,152.5,30.7c45.2,6.2,90.2,14.5,135.5,20.2c31,3.9,58.9-4.1,80.6-28.9 c16.5-18.8,19.2-38.7,9.9-61.5c-9.3-22.7-25.8-39.4-44.1-54.3c-25.2-20.6-51.7-39.6-77.6-59.2c-3.2-2.4-6.5-4.7-13.3-9.7 c12.2-1.8,20.6-2.9,29-4.3c34.1-5.8,68.6-9.7,102.1-18c46.4-11.5,92.8-22.7,140.6-25.8c26.3-1.7,48.2-12.5,66.1-31 c16-16.7,35.7-22.9,57.8-24.1c9-0.5,18-0.7,27-0.7c70.8,0,136.4-21.2,200.3-49.1c28.5-12.4,56.9-25.1,85.4-37.6 c4.3-1.9,8.8-2.9,14.1-4.6c8,17,7,33.8,6.2,49.9c-1.8,38.7-5.6,77.3-7.7,116c-3.9,72-1.9,144,9.7,215.2 c8.2,50.4,49.4,77.3,99.9,63.7c40-10.7,78.9-26,117.9-40.1c25.4-9.2,50.2-19.9,75.3-29.9c43.1-17.2,86.4-33.6,129-51.9 c18.3-7.9,35-19.4,52.4-29.5c28.2-16.4,59.4-21.9,91-27.2c41.6-6.9,79.4-23,114.3-46.9c23.9-16.4,48.8-31.6,74.4-45.2 c11.2-5.9,25.2-6.5,38-9.2c14.1-3,26.9-7.5,30.6-23.9c3.2-14.2-4.4-33.3-16.8-42.2c-8.6-6.1-17.5-8.2-27.1-2.3 c-4.1,2.5-8.5,4.8-12.1,7.9c-26,22.6-58.2,34.5-87.3,51.7C3323.9,3154,3318.8,3154.4,3314.4,3155.6z"></path> </g> </svg> 